<?xml version="1.0" encoding="utf-8"?>
<!-- Generator: Adobe Illustrator 24.0.0, SVG Export Plug-In . SVG Version: 6.00 Build 0)  -->
<svg version="1.1" xmlns="http://www.w3.org/2000/svg" xmlns:xlink="http://www.w3.org/1999/xlink" x="0px" y="0px"
	 viewBox="0 0 800 600" style="enable-background:new 0 0 800 600;" xml:space="preserve">
<style type="text/css">
	.st0{fill:#6D4535;}
	.st1{fill:#FFFFFF;}
</style>
<g id="Layer_1">
	<g>
		<path class="st0" d="M408.5,594.5c-78.26,0-151.84-30.48-207.18-85.82c-55.34-55.34-85.82-128.92-85.82-207.18
			c0-78.26,30.48-151.84,85.82-207.18S330.24,8.5,408.5,8.5c78.26,0,151.84,30.48,207.18,85.82
			c55.34,55.34,85.82,128.92,85.82,207.18c0,78.26-30.48,151.84-85.82,207.18C560.34,564.02,486.76,594.5,408.5,594.5z"/>
		<path d="M408.5,9c39.49,0,77.79,7.73,113.85,22.99c34.83,14.73,66.11,35.82,92.97,62.69c26.86,26.86,47.95,58.14,62.69,92.97
			C693.27,223.71,701,262.01,701,301.5s-7.73,77.79-22.99,113.85c-14.73,34.83-35.82,66.11-62.69,92.97
			c-26.86,26.86-58.14,47.95-92.97,62.69C486.29,586.27,447.99,594,408.5,594s-77.79-7.73-113.85-22.99
			c-34.83-14.73-66.11-35.82-92.97-62.69s-47.95-58.14-62.69-92.97C123.73,379.29,116,340.99,116,301.5s7.73-77.79,22.99-113.85
			c14.73-34.83,35.82-66.11,62.69-92.97s58.14-47.95,92.97-62.69C330.71,16.73,369.01,9,408.5,9 M408.5,8
			C246.4,8,115,139.4,115,301.5S246.4,595,408.5,595S702,463.6,702,301.5S570.6,8,408.5,8L408.5,8z"/>
	</g>
</g>
<g id="Layer_1_copy">
	<g>
		<path class="st1" d="M408,540.5c-63.97,0-124.12-24.91-169.35-70.15S168.5,364.97,168.5,301s24.91-124.12,70.15-169.35
			S344.03,61.5,408,61.5s124.12,24.91,169.35,70.15S647.5,237.03,647.5,301s-24.91,124.12-70.15,169.35S471.97,540.5,408,540.5z"/>
		<path d="M408,62c32.27,0,63.56,6.32,93.03,18.78C529.49,92.82,555.05,110.05,577,132c21.95,21.95,39.18,47.51,51.22,75.97
			C640.68,237.44,647,268.73,647,301s-6.32,63.56-18.78,93.03C616.18,422.49,598.95,448.05,577,470
			c-21.95,21.95-47.51,39.18-75.97,51.22C471.56,533.68,440.27,540,408,540s-63.56-6.32-93.03-18.78
			C286.51,509.18,260.95,491.95,239,470c-21.95-21.95-39.18-47.51-51.22-75.97C175.32,364.56,169,333.27,169,301
			s6.32-63.56,18.78-93.03c12.04-28.46,29.27-54.02,51.22-75.97c21.95-21.95,47.51-39.18,75.97-51.22C344.44,68.32,375.73,62,408,62
			 M408,61c-132.55,0-240,107.45-240,240s107.45,240,240,240s240-107.45,240-240S540.55,61,408,61L408,61z"/>
	</g>
</g>
</svg>
